<svg width="32" height="32" viewBox="0 0 32 32" fill="none" xmlns="http://www.w3.org/2000/svg">
<rect width="31.5" height="31.5" rx="15.75" fill="#000304"/>
<g clip-path="url(#clip0_42_386)">
<path fill-rule="evenodd" clip-rule="evenodd" d="M13.629 16.7505L15.7515 18.2018L17.7975 16.7903L22.3837 21.315C22.2627 21.3545 22.1348 21.3745 21.9998 21.375H9.50025C9.33525 21.375 9.17775 21.3427 9.033 21.285L13.629 16.7505ZM23.25 13.032V20.1248C23.25 20.31 23.2095 20.4855 23.1375 20.6437L18.642 16.2083L23.25 13.032ZM8.25 13.0717L12.7815 16.1707L8.3295 20.5643C8.27735 20.4236 8.25043 20.2748 8.25 20.1248V13.0717ZM21.9998 10.125C22.6898 10.125 23.25 10.6845 23.25 11.3752V11.8147L15.7485 16.986L8.25 11.8575V11.3752C8.25 10.6852 8.8095 10.125 9.50025 10.125H21.9998Z" fill="#E63211"/>
</g>
<defs>
<clipPath id="clip0_42_386">
<rect width="15" height="15" fill="white" transform="translate(8.25 8.25)"/>
</clipPath>
</defs>
</svg>
