<svg width="32" height="32" viewBox="0 0 32 32" fill="none" xmlns="http://www.w3.org/2000/svg">
<rect width="31.5" height="31.5" rx="15.75" fill="#000304"/>
<path d="M15.75 12.2885C15.0654 12.2885 14.3961 12.4915 13.8269 12.8718C13.2576 13.2522 12.814 13.7928 12.552 14.4253C12.29 15.0578 12.2214 15.7538 12.355 16.4253C12.4885 17.0968 12.8182 17.7136 13.3023 18.1977C13.7864 18.6818 14.4032 19.0115 15.0747 19.145C15.7462 19.2786 16.4422 19.21 17.0747 18.948C17.7072 18.686 18.2478 18.2424 18.6282 17.6731C19.0085 17.1039 19.2115 16.4346 19.2115 15.75C19.2106 14.8322 18.8456 13.9523 18.1966 13.3034C17.5477 12.6544 16.6678 12.2894 15.75 12.2885ZM15.75 18.0577C15.2936 18.0577 14.8474 17.9223 14.4679 17.6688C14.0884 17.4152 13.7926 17.0548 13.618 16.6331C13.4433 16.2114 13.3976 15.7474 13.4866 15.2998C13.5757 14.8521 13.7955 14.441 14.1182 14.1182C14.441 13.7955 14.8521 13.5757 15.2998 13.4866C15.7474 13.3976 16.2114 13.4433 16.6331 13.618C17.0548 13.7926 17.4152 14.0884 17.6688 14.4679C17.9223 14.8474 18.0577 15.2936 18.0577 15.75C18.0577 16.362 17.8146 16.949 17.3818 17.3818C16.949 17.8146 16.362 18.0577 15.75 18.0577ZM19.2115 8.25H12.2885C11.2177 8.25115 10.1912 8.67699 9.4341 9.4341C8.67699 10.1912 8.25115 11.2177 8.25 12.2885V19.2115C8.25115 20.2823 8.67699 21.3088 9.4341 22.0659C10.1912 22.823 11.2177 23.2489 12.2885 23.25H19.2115C20.2823 23.2489 21.3088 22.823 22.0659 22.0659C22.823 21.3088 23.2489 20.2823 23.25 19.2115V12.2885C23.2489 11.2177 22.823 10.1912 22.0659 9.4341C21.3088 8.67699 20.2823 8.25115 19.2115 8.25ZM22.0962 19.2115C22.0962 19.9766 21.7922 20.7103 21.2513 21.2513C20.7103 21.7922 19.9766 22.0962 19.2115 22.0962H12.2885C11.5234 22.0962 10.7897 21.7922 10.2487 21.2513C9.70776 20.7103 9.40385 19.9766 9.40385 19.2115V12.2885C9.40385 11.5234 9.70776 10.7897 10.2487 10.2487C10.7897 9.70776 11.5234 9.40385 12.2885 9.40385H19.2115C19.9766 9.40385 20.7103 9.70776 21.2513 10.2487C21.7922 10.7897 22.0962 11.5234 22.0962 12.2885V19.2115ZM20.3654 12C20.3654 12.1712 20.3146 12.3385 20.2195 12.4808C20.1245 12.6231 19.9893 12.734 19.8312 12.7995C19.673 12.865 19.499 12.8821 19.3312 12.8488C19.1633 12.8154 19.0091 12.7329 18.8881 12.6119C18.7671 12.4909 18.6846 12.3367 18.6512 12.1688C18.6179 12.001 18.635 11.827 18.7005 11.6688C18.766 11.5107 18.8769 11.3755 19.0192 11.2805C19.1615 11.1854 19.3288 11.1346 19.5 11.1346C19.7295 11.1346 19.9496 11.2258 20.1119 11.3881C20.2742 11.5504 20.3654 11.7705 20.3654 12Z" fill="#E63211"/>
</svg>
