<svg width="32" height="32" viewBox="0 0 32 32" fill="none" xmlns="http://www.w3.org/2000/svg">
<rect width="31.5" height="31.5" rx="15.75" fill="#000304"/>
<path d="M23.989 19.7565C23.9698 19.6644 23.9273 19.5787 23.8656 19.5077C23.8038 19.4367 23.7249 19.3827 23.6363 19.3509C23.6095 19.3413 21.6461 18.603 20.6802 15.9666L22.007 15.4358C22.1425 15.3811 22.2507 15.2749 22.3078 15.1404C22.3649 15.0059 22.3663 14.8543 22.3116 14.7188C22.2569 14.5833 22.1506 14.4752 22.0161 14.418C21.8817 14.3609 21.73 14.3596 21.5945 14.4143L20.3695 14.9044C20.2189 14.1879 20.1457 13.4573 20.1509 12.7252C20.1509 11.5583 19.6873 10.4392 18.8622 9.61409C18.0371 8.78898 16.918 8.32544 15.7511 8.32544C14.5843 8.32544 13.4652 8.78898 12.6401 9.61409C11.8149 10.4392 11.3514 11.5583 11.3514 12.7252C11.3557 13.4584 11.2824 14.1901 11.1328 14.9079L9.90773 14.4143C9.84065 14.3872 9.7689 14.3736 9.69656 14.3742C9.62423 14.3749 9.55273 14.3898 9.48615 14.418C9.41957 14.4463 9.35921 14.4874 9.30851 14.539C9.25782 14.5907 9.21779 14.6517 9.19071 14.7188C9.13601 14.8543 9.13737 15.0059 9.19448 15.1404C9.2516 15.2749 9.35979 15.3811 9.49525 15.4358L10.8269 15.9686C10.554 16.731 10.1403 17.4352 9.60731 18.0447C8.74661 19.0168 7.8701 19.3509 7.86391 19.3509C7.77534 19.3828 7.69642 19.4368 7.63471 19.5079C7.573 19.5789 7.53056 19.6646 7.51145 19.7568C7.49234 19.849 7.49721 19.9445 7.52558 20.0342C7.55395 20.124 7.60488 20.2049 7.67349 20.2694C8.16158 20.7279 8.88823 20.7994 9.59012 20.8688C10.0239 20.9115 10.4721 20.9561 10.7169 21.0909C10.9485 21.2188 11.1878 21.546 11.4188 21.8622C11.79 22.3716 12.2114 22.9484 12.8789 23.1189C13.5025 23.2791 14.1404 23.0618 14.7035 22.87C15.085 22.7401 15.4459 22.617 15.7491 22.617C16.0522 22.617 16.4132 22.7401 16.7947 22.87C17.2209 23.0151 17.6884 23.1746 18.1627 23.1746C18.3167 23.1754 18.47 23.1567 18.6192 23.1189C19.2861 22.9484 19.7075 22.3716 20.0787 21.8622C20.3097 21.546 20.5489 21.2188 20.7806 21.0909C21.0253 20.9534 21.4736 20.9115 21.9073 20.8688C22.6092 20.8001 23.3359 20.7279 23.824 20.2694C23.8932 20.2052 23.9447 20.1243 23.9736 20.0345C24.0025 19.9447 24.0078 19.849 23.989 19.7565ZM21.8015 19.7744C21.2577 19.828 20.696 19.8837 20.2526 20.1271C19.8092 20.3704 19.4964 20.8001 19.1933 21.2139C18.9183 21.5907 18.633 21.9811 18.3491 22.0533C18.0424 22.1324 17.6093 21.9846 17.1515 21.8285C16.6936 21.6725 16.2365 21.5171 15.7511 21.5171C15.2658 21.5171 14.8004 21.6752 14.3508 21.8285C13.9012 21.9818 13.4571 22.1324 13.1532 22.0533C12.8693 21.9811 12.5847 21.5907 12.309 21.2139C12.0072 20.8015 11.6951 20.3725 11.2497 20.1271C10.8042 19.8816 10.2446 19.828 9.70149 19.7744C9.59494 19.7641 9.48494 19.7531 9.37564 19.7407C9.74247 19.4713 10.0808 19.1652 10.3855 18.8271C10.9609 18.1898 11.6037 17.2301 12.0175 15.8621L12.0217 15.8531C12.0358 15.8173 12.0464 15.7803 12.0533 15.7424C12.3265 14.7603 12.4605 13.7446 12.4513 12.7252C12.4513 11.85 12.799 11.0107 13.4178 10.3919C14.0367 9.77303 14.876 9.42538 15.7511 9.42538C16.6263 9.42538 17.4656 9.77303 18.0845 10.3919C18.7033 11.0107 19.0509 11.85 19.0509 12.7252C19.0418 13.7453 19.176 14.7617 19.4497 15.7445C19.4566 15.7823 19.4672 15.8194 19.4813 15.8552L19.4854 15.8641C19.8979 17.2322 20.542 18.1919 21.1175 18.8291C21.4221 19.1672 21.7605 19.4734 22.1273 19.7428C22.018 19.7531 21.9087 19.7641 21.8008 19.7744H21.8015Z" fill="#E63211"/>
</svg>
