<svg width="32" height="32" viewBox="0 0 32 32" fill="none" xmlns="http://www.w3.org/2000/svg">
<rect width="31.5" height="31.5" rx="15.75" fill="#000304"/>
<path d="M18.9377 15.1673L14.7377 12.3673C14.6323 12.297 14.5097 12.2566 14.3831 12.2504C14.2565 12.2443 14.1306 12.2726 14.0188 12.3325C13.9071 12.3923 13.8137 12.4814 13.7486 12.5901C13.6835 12.6989 13.6491 12.8233 13.6492 12.9501V18.5501C13.6491 18.6768 13.6835 18.8012 13.7486 18.91C13.8137 19.0188 13.9071 19.1078 14.0188 19.1676C14.1306 19.2275 14.2565 19.2558 14.3831 19.2497C14.5097 19.2436 14.6323 19.2032 14.7377 19.1328L18.9377 16.3328C19.0337 16.2689 19.1125 16.1823 19.1669 16.0806C19.2214 15.9789 19.2499 15.8654 19.2499 15.7501C19.2499 15.6347 19.2214 15.5212 19.1669 15.4195C19.1125 15.3178 19.0337 15.2312 18.9377 15.1673ZM15.0492 17.2419V14.2626L17.2875 15.7501L15.0492 17.2419ZM25.0531 10.6331C24.9706 10.3105 24.8127 10.0121 24.5922 9.76263C24.3718 9.51312 24.0952 9.31961 23.7852 9.19805C20.7857 8.03955 16.0117 8.05005 15.7492 8.05005C15.4867 8.05005 10.7127 8.03955 7.71322 9.19805C7.40326 9.31961 7.12665 9.51312 6.9062 9.76263C6.68575 10.0121 6.52779 10.3105 6.44534 10.6331C6.21872 11.5063 5.94922 13.1023 5.94922 15.7501C5.94922 18.3978 6.21872 19.9938 6.44534 20.8671C6.52767 21.1898 6.68558 21.4883 6.90603 21.738C7.12648 21.9876 7.40316 22.1813 7.71322 22.3029C10.5867 23.4116 15.0842 23.4501 15.6915 23.4501H15.807C16.4142 23.4501 20.9143 23.4116 23.7852 22.3029C24.0953 22.1813 24.372 21.9876 24.5924 21.738C24.8129 21.4883 24.9708 21.1898 25.0531 20.8671C25.2797 19.9921 25.5492 18.3978 25.5492 15.7501C25.5492 13.1023 25.2797 11.5063 25.0531 10.6331ZM23.6977 20.5206C23.6711 20.6279 23.6193 20.7274 23.5468 20.8109C23.4742 20.8944 23.3829 20.9595 23.2803 21.0009C20.511 22.0702 15.8008 22.0509 15.7553 22.0509H15.7492C15.702 22.0509 10.9953 22.0684 8.22422 21.0009C8.12164 20.9595 8.03034 20.8944 7.95779 20.8109C7.88524 20.7274 7.83351 20.6279 7.80684 20.5206C7.59422 19.7217 7.34922 18.2499 7.34922 15.7501C7.34922 13.2502 7.59422 11.7784 7.80072 10.9839C7.82689 10.8759 7.87839 10.7757 7.95097 10.6916C8.02355 10.6074 8.11511 10.5418 8.21809 10.5001C10.8886 9.46843 15.3633 9.45005 15.73 9.45005H15.7536C15.8008 9.45005 20.5118 9.4343 23.2786 10.5001C23.3812 10.5415 23.4725 10.6066 23.545 10.6901C23.6176 10.7736 23.6693 10.8731 23.696 10.9804C23.9042 11.7784 24.1492 13.2502 24.1492 15.7501C24.1492 18.2499 23.9042 19.7217 23.6977 20.5162V20.5206Z" fill="#E63211"/>
</svg>
